<svg id="Layer_1" data-name="Layer 1" xmlns="http://www.w3.org/2000/svg" viewBox="0 0 186.93 51.02"><defs><style>.cls-1{fill:#8aa54d;}.cls-2{fill:#010101;}.cls-2,.cls-3{opacity:0.5;}.cls-4{fill:#3a3b3a;}</style></defs><path class="cls-1" d="M100.52,185.05V155.13h4.12l6.47,18h.09v-18h4.28v29.92h-4l-6.56-18h-.08v18Z" transform="translate(-100.52 -154.88)"/><path class="cls-1" d="M133.21,155.13v23.19a6.82,6.82,0,0,1-.52,2.71,6.9,6.9,0,0,1-1.49,2.21,7.21,7.21,0,0,1-2.23,1.51,6.61,6.61,0,0,1-2.69.55,6.48,6.48,0,0,1-2.67-.55,7.33,7.33,0,0,1-3.72-3.72,6.66,6.66,0,0,1-.54-2.71V155.13h4.28V177.9a3.25,3.25,0,0,0,.76,2.36,2.76,2.76,0,0,0,3.78,0,3.2,3.2,0,0,0,.76-2.36V155.13Z" transform="translate(-100.52 -154.88)"/><path class="cls-1" d="M140.06,185.05V159.17h-5v-4h14.2v4h-5v25.88Z" transform="translate(-100.52 -154.88)"/><path class="cls-1" d="M151.19,185.05V155.13h6.9q7.56,0,7.56,8.78a11,11,0,0,1-.82,4.5,6.36,6.36,0,0,1-2.88,3l4.62,13.66H162l-4-12.78h-2.56v12.78Zm4.29-25.88v9.32h2.44a4.28,4.28,0,0,0,1.8-.31,2.39,2.39,0,0,0,1.05-.91,4.06,4.06,0,0,0,.47-1.45,14.56,14.56,0,0,0,.12-2,14.72,14.72,0,0,0-.12-2,4.16,4.16,0,0,0-.51-1.49,3.41,3.41,0,0,0-3-1.17Z" transform="translate(-100.52 -154.88)"/><path class="cls-1" d="M169.22,185.05V155.13h4.29v29.92Z" transform="translate(-100.52 -154.88)"/><path class="cls-1" d="M192.2,155.13l-6.13,29.92h-3.78l-6.1-29.92h4.54L184.14,176h.08l3.44-20.88Z" transform="translate(-100.52 -154.88)"/><path class="cls-1" d="M194.89,185.05V155.13h4.29v29.92Z" transform="translate(-100.52 -154.88)"/><path class="cls-1" d="M201.4,185.05l6.68-29.92h3.58l6.68,29.92h-4.29l-1.26-6.43H207l-1.26,6.43ZM212,174.58l-2.1-10.84h-.08l-2.1,10.84Z" transform="translate(-100.52 -154.88)"/><path class="cls-1" d="M220.27,185.05V155.13h4.12l6.47,18h.08v-18h4.29v29.92h-4l-6.55-18h-.09v18Z" transform="translate(-100.52 -154.88)"/><path class="cls-1" d="M239.09,185.05V155.13h6.35a7.37,7.37,0,0,1,5.61,2,8,8,0,0,1,1.91,5.71v14q0,4.2-2,6.2a8,8,0,0,1-5.86,2Zm4.29-25.88V181h2a3.2,3.2,0,0,0,2.57-.9,4.41,4.41,0,0,0,.75-2.84V162.86a4.59,4.59,0,0,0-.71-2.73,3.08,3.08,0,0,0-2.61-1Z" transform="translate(-100.52 -154.88)"/><path class="cls-1" d="M254.55,185.05l6.68-29.92h3.58l6.68,29.92H267.2l-1.26-6.43H260.1l-1.26,6.43Zm10.59-10.47L263,163.74H263l-2.1,10.84Z" transform="translate(-100.52 -154.88)"/><path class="cls-1" d="M287.45,163.74h-4.28v-1a4.5,4.5,0,0,0-.7-2.54,2.55,2.55,0,0,0-2.33-1.07,2.75,2.75,0,0,0-1.43.33,3,3,0,0,0-.88.84,3.62,3.62,0,0,0-.46,1.24,7.59,7.59,0,0,0-.13,1.45,12,12,0,0,0,.07,1.47,2.74,2.74,0,0,0,.31,1.05,2.25,2.25,0,0,0,.74.8,6.67,6.67,0,0,0,1.32.67l3.28,1.3a8.33,8.33,0,0,1,2.31,1.29,5.34,5.34,0,0,1,1.38,1.7,7.76,7.76,0,0,1,.63,2.29,21.27,21.27,0,0,1,.17,2.92,15,15,0,0,1-.38,3.51,7.43,7.43,0,0,1-1.21,2.75,6.09,6.09,0,0,1-2.32,1.85,8.24,8.24,0,0,1-3.48.67,7.49,7.49,0,0,1-2.9-.55,6.81,6.81,0,0,1-2.31-1.51,7.2,7.2,0,0,1-1.54-2.25,6.92,6.92,0,0,1-.56-2.79v-1.6H277V178a3.46,3.46,0,0,0,.7,2.12,2.68,2.68,0,0,0,2.33.94,3.77,3.77,0,0,0,1.7-.31,2.25,2.25,0,0,0,.95-.91,3.33,3.33,0,0,0,.39-1.4c0-.55.07-1.16.07-1.83a16.87,16.87,0,0,0-.09-1.93,3.17,3.17,0,0,0-.33-1.22,2.46,2.46,0,0,0-.78-.76,11.81,11.81,0,0,0-1.28-.63l-3.07-1.26a6.83,6.83,0,0,1-3.72-3,10.36,10.36,0,0,1-.94-4.69,10.79,10.79,0,0,1,.46-3.19,7.26,7.26,0,0,1,1.39-2.61,6.41,6.41,0,0,1,2.24-1.74,7.58,7.58,0,0,1,3.26-.65,7.15,7.15,0,0,1,2.92.59,7.52,7.52,0,0,1,2.29,1.55,6.5,6.5,0,0,1,1.93,4.62Z" transform="translate(-100.52 -154.88)"/><circle class="cls-2" cx="80.86" cy="45.05" r="3.15"/><g class="cls-3"><path class="cls-4" d="M126.34,204.07a4.06,4.06,0,0,1-1.35,1.38,3.09,3.09,0,0,1-1.62.45,3.72,3.72,0,0,1-1.71-.41,4.09,4.09,0,0,1-1.34-1.15,5.79,5.79,0,0,1-.87-1.76,7.39,7.39,0,0,1-.32-2.22,7.49,7.49,0,0,1,.32-2.22,5.73,5.73,0,0,1,.87-1.75,4,4,0,0,1,1.34-1.15,3.72,3.72,0,0,1,1.71-.41,3,3,0,0,1,1.65.48,4.65,4.65,0,0,1,1.35,1.34l-.83.82a4.1,4.1,0,0,0-1-1,2,2,0,0,0-1.17-.38,2.55,2.55,0,0,0-1.32.34,3.17,3.17,0,0,0-1,.92,4.22,4.22,0,0,0-.64,1.37,6,6,0,0,0-.22,1.67,6.09,6.09,0,0,0,.22,1.68,4.07,4.07,0,0,0,.64,1.36,3.09,3.09,0,0,0,1,.93,2.65,2.65,0,0,0,1.32.34,2,2,0,0,0,1.21-.4,3.65,3.65,0,0,0,1-1.06Z" transform="translate(-100.52 -154.88)"/><path class="cls-4" d="M127.52,200.36a7.49,7.49,0,0,1,.32-2.22,5.73,5.73,0,0,1,.87-1.75,4,4,0,0,1,1.34-1.15,3.72,3.72,0,0,1,1.71-.41,3.59,3.59,0,0,1,1.7.41,4.11,4.11,0,0,1,1.35,1.15,5.75,5.75,0,0,1,.88,1.75,7.49,7.49,0,0,1,.31,2.22,7.4,7.4,0,0,1-.31,2.22,5.81,5.81,0,0,1-.88,1.76,4.23,4.23,0,0,1-1.35,1.15,3.59,3.59,0,0,1-1.7.41,3.72,3.72,0,0,1-1.71-.41,4.09,4.09,0,0,1-1.34-1.15,5.79,5.79,0,0,1-.87-1.76A7.39,7.39,0,0,1,127.52,200.36Zm1,0a6.09,6.09,0,0,0,.22,1.68,4.07,4.07,0,0,0,.64,1.36,3.09,3.09,0,0,0,1,.93,2.65,2.65,0,0,0,1.32.34,2.71,2.71,0,0,0,1.33-.34,3.3,3.3,0,0,0,1-.93,4.28,4.28,0,0,0,.64-1.36,6.49,6.49,0,0,0,.22-1.68,6.42,6.42,0,0,0-.22-1.67,4.44,4.44,0,0,0-.64-1.37,3.4,3.4,0,0,0-1-.92,2.61,2.61,0,0,0-1.33-.34,2.55,2.55,0,0,0-1.32.34,3.17,3.17,0,0,0-1,.92,4.22,4.22,0,0,0-.64,1.37A6,6,0,0,0,128.57,200.36Z" transform="translate(-100.52 -154.88)"/><path class="cls-4" d="M145.09,204.07a4,4,0,0,1-1.34,1.38,3.1,3.1,0,0,1-1.63.45,3.72,3.72,0,0,1-1.71-.41,4.09,4.09,0,0,1-1.34-1.15,5.79,5.79,0,0,1-.87-1.76,7.4,7.4,0,0,1-.31-2.22,7.49,7.49,0,0,1,.31-2.22,5.73,5.73,0,0,1,.87-1.75,4,4,0,0,1,1.34-1.15,3.72,3.72,0,0,1,1.71-.41,3,3,0,0,1,1.65.48,4.65,4.65,0,0,1,1.35,1.34l-.83.82a4.1,4.1,0,0,0-1-1,2,2,0,0,0-1.17-.38,2.57,2.57,0,0,0-1.32.34,3.28,3.28,0,0,0-1,.92,4.44,4.44,0,0,0-.64,1.37,6,6,0,0,0-.22,1.67,6.09,6.09,0,0,0,.22,1.68,4.28,4.28,0,0,0,.64,1.36,3.19,3.19,0,0,0,1,.93,2.67,2.67,0,0,0,1.32.34,2.07,2.07,0,0,0,1.22-.4,3.77,3.77,0,0,0,.95-1.06Z" transform="translate(-100.52 -154.88)"/><path class="cls-4" d="M146.64,190.94a1.18,1.18,0,0,1,.23-.73.68.68,0,0,1,.56-.3.66.66,0,0,1,.55.3,1.27,1.27,0,0,1,0,1.46.68.68,0,0,1-.55.29.7.7,0,0,1-.56-.29A1.18,1.18,0,0,1,146.64,190.94Zm.26,4.16h1v10.52h-1Z" transform="translate(-100.52 -154.88)"/><path class="cls-4" d="M150.92,198.06c0-.19,0-.43,0-.71l0-.86c0-.29,0-.56,0-.81s0-.44,0-.58h1c0,.4,0,.78,0,1.14a6.34,6.34,0,0,0,0,.71H152a3.43,3.43,0,0,1,1-1.49,2.55,2.55,0,0,1,1.71-.63,2.77,2.77,0,0,1,1.54.39,2.82,2.82,0,0,1,.93,1,4.5,4.5,0,0,1,.47,1.45,10.21,10.21,0,0,1,.13,1.68v6.26h-1v-6.19a8.32,8.32,0,0,0-.09-1.24,3.89,3.89,0,0,0-.31-1.08,1.87,1.87,0,0,0-.61-.77,1.69,1.69,0,0,0-1-.28,2.46,2.46,0,0,0-1.09.26,2.49,2.49,0,0,0-.89.8,4.14,4.14,0,0,0-.59,1.34,7.14,7.14,0,0,0-.22,1.9v5.26h-1Z" transform="translate(-100.52 -154.88)"/><path class="cls-4" d="M166.88,201.21v1.38q0,.61,0,1.14c0,.35,0,.68,0,1s.05.61.08.91h-1a12.56,12.56,0,0,1-.11-1.7h0a3.62,3.62,0,0,1-1.13,1.5,2.85,2.85,0,0,1-1.7.48,3.32,3.32,0,0,1-1-.17,2.58,2.58,0,0,1-.91-.55,2.89,2.89,0,0,1-.65-1,3.59,3.59,0,0,1-.25-1.43,3.37,3.37,0,0,1,.47-1.92,3,3,0,0,1,1.16-1.05,4.44,4.44,0,0,1,1.46-.46,10.38,10.38,0,0,1,1.37-.1h1.22v-.64a2.57,2.57,0,0,0-.64-2,2.32,2.32,0,0,0-1.62-.59,3.22,3.22,0,0,0-2.46,1.18l-.61-.93a3.6,3.6,0,0,1,1.43-1.1,4.06,4.06,0,0,1,1.64-.38,3.1,3.1,0,0,1,2.33.9,4.07,4.07,0,0,1,.88,2.9Zm-2.1-.87a7.62,7.62,0,0,0-1.28.11,4,4,0,0,0-1.12.39,2.22,2.22,0,0,0-.79.73,2,2,0,0,0-.3,1.14,2.08,2.08,0,0,0,.17.85,1.77,1.77,0,0,0,1,1,1.89,1.89,0,0,0,.66.13,2.7,2.7,0,0,0,1.37-.32,2.56,2.56,0,0,0,.87-.83,3.45,3.45,0,0,0,.44-1.16,7.26,7.26,0,0,0,.12-1.31v-.71Z" transform="translate(-100.52 -154.88)"/></g><g class="cls-3"><path class="cls-4" d="M195.91,202.94a2.66,2.66,0,0,0,1,1.28,2.35,2.35,0,0,0,1.36.45,1.79,1.79,0,0,0,.67-.14,1.89,1.89,0,0,0,.59-.39,1.92,1.92,0,0,0,.43-.6,1.86,1.86,0,0,0,.16-.81,1.49,1.49,0,0,0-.36-1.09,2.48,2.48,0,0,0-.88-.57,8.21,8.21,0,0,0-1.15-.35,4,4,0,0,1-1.15-.46,2.64,2.64,0,0,1-.88-.85,2.82,2.82,0,0,1-.36-1.55,3.24,3.24,0,0,1,.25-1.34,2.82,2.82,0,0,1,.63-1,2.85,2.85,0,0,1,.88-.56,2.89,2.89,0,0,1,1-.18,3.07,3.07,0,0,1,1.72.48,3.1,3.1,0,0,1,1.12,1.5l-.94.73a2.91,2.91,0,0,0-.74-1.1,1.74,1.74,0,0,0-1.16-.38,1.63,1.63,0,0,0-.59.12,2,2,0,0,0-.55.31,2,2,0,0,0-.41.53,1.54,1.54,0,0,0-.16.73,1.35,1.35,0,0,0,.36,1,2.51,2.51,0,0,0,.88.54,8.26,8.26,0,0,0,1.15.33,4,4,0,0,1,1.15.44,2.59,2.59,0,0,1,.88.89,3.16,3.16,0,0,1,.36,1.65,3.89,3.89,0,0,1-.24,1.43,2.91,2.91,0,0,1-.64,1,2.72,2.72,0,0,1-.94.61,2.86,2.86,0,0,1-1.09.21,3.59,3.59,0,0,1-1.91-.53,3.28,3.28,0,0,1-1.34-1.61Z" transform="translate(-100.52 -154.88)"/><path class="cls-4" d="M209.58,201.21c0,.51,0,1,0,1.39s0,.79,0,1.13,0,.68,0,1,0,.61.08.91h-1a12.65,12.65,0,0,1-.1-1.7h0a3.6,3.6,0,0,1-1.12,1.5,2.87,2.87,0,0,1-1.7.48,3.27,3.27,0,0,1-1-.17,2.58,2.58,0,0,1-.91-.55,2.63,2.63,0,0,1-.65-1,3.58,3.58,0,0,1-.26-1.43,3.41,3.41,0,0,1,.47-1.91,3.08,3.08,0,0,1,1.16-1.06,4.42,4.42,0,0,1,1.47-.46,10.26,10.26,0,0,1,1.37-.1h1.22v-.64a2.57,2.57,0,0,0-.65-2,2.32,2.32,0,0,0-1.62-.59,3.23,3.23,0,0,0-2.46,1.19l-.61-.94a3.77,3.77,0,0,1,1.43-1.1,4.1,4.1,0,0,1,1.64-.38,3.1,3.1,0,0,1,2.34.9,4.07,4.07,0,0,1,.87,2.9Zm-2.09-.87a6.7,6.7,0,0,0-1.28.12,3.53,3.53,0,0,0-1.12.38,2.23,2.23,0,0,0-.79.73,2,2,0,0,0-.3,1.14,1.93,1.93,0,0,0,.17.85,1.88,1.88,0,0,0,.42.62,1.8,1.8,0,0,0,.59.36,1.64,1.64,0,0,0,.65.13,2.71,2.71,0,0,0,1.38-.32,2.45,2.45,0,0,0,.86-.83,3.19,3.19,0,0,0,.45-1.16,7.26,7.26,0,0,0,.12-1.31v-.71Z" transform="translate(-100.52 -154.88)"/><path class="cls-4" d="M212.55,188.41h1v17.21h-1Z" transform="translate(-100.52 -154.88)"/><path class="cls-4" d="M223.38,202.67c0,.19,0,.43,0,.71s0,.57,0,.86,0,.55,0,.8,0,.45,0,.58h-1.05c0-.39,0-.77,0-1.13a4.52,4.52,0,0,0,0-.71h0a3.51,3.51,0,0,1-1.05,1.49,2.55,2.55,0,0,1-1.71.63,2.77,2.77,0,0,1-1.54-.39,2.68,2.68,0,0,1-.94-1,4.27,4.27,0,0,1-.47-1.45,11.66,11.66,0,0,1-.12-1.68v-6.26h1.05v6.19a8.42,8.42,0,0,0,.09,1.24,3.57,3.57,0,0,0,.3,1.08,1.92,1.92,0,0,0,.61.76,1.69,1.69,0,0,0,1,.29,2.4,2.4,0,0,0,1.09-.26,2.49,2.49,0,0,0,.89-.8,4.14,4.14,0,0,0,.59-1.34,7.19,7.19,0,0,0,.22-1.9v-5.26h1Z" transform="translate(-100.52 -154.88)"/><path class="cls-4" d="M233.3,203.78h0a3.68,3.68,0,0,1-.61.95,4.07,4.07,0,0,1-.79.66,3.52,3.52,0,0,1-.9.38,3.42,3.42,0,0,1-.93.13,3.72,3.72,0,0,1-1.71-.41,4.09,4.09,0,0,1-1.34-1.15,5.79,5.79,0,0,1-.87-1.76,7.83,7.83,0,0,1,0-4.43,5.79,5.79,0,0,1,.87-1.76,4.09,4.09,0,0,1,1.34-1.15,3.72,3.72,0,0,1,1.71-.41,3.42,3.42,0,0,1,.93.13,3.52,3.52,0,0,1,.9.38,4.07,4.07,0,0,1,.79.66,3.68,3.68,0,0,1,.61.95h0v-8.54h1v17.21h-1Zm.11-3.41a5.42,5.42,0,0,0-.26-1.68,4.63,4.63,0,0,0-.72-1.36,3.47,3.47,0,0,0-1.06-.93,2.77,2.77,0,0,0-1.33-.34,2.65,2.65,0,0,0-1.32.34,3.09,3.09,0,0,0-1,.93,4.07,4.07,0,0,0-.64,1.36,6.49,6.49,0,0,0,0,3.35,4.07,4.07,0,0,0,.64,1.36,3.09,3.09,0,0,0,1,.93,2.65,2.65,0,0,0,1.32.34,2.77,2.77,0,0,0,1.33-.34,3.47,3.47,0,0,0,1.06-.93,4.63,4.63,0,0,0,.72-1.36A5.41,5.41,0,0,0,233.41,200.37Z" transform="translate(-100.52 -154.88)"/><path class="cls-4" d="M243.18,201.21c0,.51,0,1,0,1.39s0,.79,0,1.13,0,.68,0,1,0,.61.07.91h-1a12.56,12.56,0,0,1-.11-1.7h0a3.54,3.54,0,0,1-1.13,1.5,2.85,2.85,0,0,1-1.7.48,3.32,3.32,0,0,1-1-.17,2.54,2.54,0,0,1-.9-.55,2.77,2.77,0,0,1-.66-1,3.59,3.59,0,0,1-.25-1.43,3.41,3.41,0,0,1,.47-1.91,3,3,0,0,1,1.16-1.06,4.44,4.44,0,0,1,1.46-.46,10.38,10.38,0,0,1,1.37-.1h1.23v-.64a2.57,2.57,0,0,0-.65-2,2.32,2.32,0,0,0-1.62-.59,3.23,3.23,0,0,0-2.46,1.19l-.61-.94a3.69,3.69,0,0,1,1.43-1.1,4.06,4.06,0,0,1,1.64-.38,3.1,3.1,0,0,1,2.33.9,4,4,0,0,1,.88,2.9Zm-2.1-.87a6.7,6.7,0,0,0-1.28.12,3.55,3.55,0,0,0-1.11.38,2.26,2.26,0,0,0-.8.73,2,2,0,0,0-.3,1.14,2.08,2.08,0,0,0,.17.85,1.77,1.77,0,0,0,1,1,1.72,1.72,0,0,0,.66.13,2.67,2.67,0,0,0,1.37-.32,2.48,2.48,0,0,0,.87-.83,3.37,3.37,0,0,0,.44-1.16,7.27,7.27,0,0,0,.13-1.31v-.71Z" transform="translate(-100.52 -154.88)"/><path class="cls-4" d="M245.74,188.41h1V197h0a4,4,0,0,1,.61-.95,4.13,4.13,0,0,1,.8-.66,3.25,3.25,0,0,1,.9-.38,3.3,3.3,0,0,1,.92-.13,3.62,3.62,0,0,1,1.7.41,4.09,4.09,0,0,1,1.34,1.15,5.6,5.6,0,0,1,.89,1.76,8.07,8.07,0,0,1,0,4.43,5.6,5.6,0,0,1-.89,1.76,4.09,4.09,0,0,1-1.34,1.15,3.62,3.62,0,0,1-1.7.41,3.3,3.3,0,0,1-.92-.13,3.25,3.25,0,0,1-.9-.38,4.13,4.13,0,0,1-.8-.66,4,4,0,0,1-.61-.95h0v1.84h-1Zm.94,12A5.13,5.13,0,0,0,247,202a4.39,4.39,0,0,0,.71,1.36,3.59,3.59,0,0,0,1.06.93,2.77,2.77,0,0,0,1.33.34,2.71,2.71,0,0,0,1.33-.34,3.3,3.3,0,0,0,1-.93A4.06,4.06,0,0,0,253,202a6.49,6.49,0,0,0,0-3.35,4.06,4.06,0,0,0-.63-1.36,3.3,3.3,0,0,0-1-.93,2.71,2.71,0,0,0-1.33-.34,2.77,2.77,0,0,0-1.33.34,3.59,3.59,0,0,0-1.06.93,4.39,4.39,0,0,0-.71,1.36A5.14,5.14,0,0,0,246.68,200.37Z" transform="translate(-100.52 -154.88)"/><path class="cls-4" d="M256.8,188.41h1.05v17.21H256.8Z" transform="translate(-100.52 -154.88)"/><path class="cls-4" d="M267.93,203.64a4,4,0,0,1-1.51,1.73,3.86,3.86,0,0,1-2,.53,3.44,3.44,0,0,1-1.67-.41,4,4,0,0,1-1.29-1.15,5.31,5.31,0,0,1-.83-1.76,8.21,8.21,0,0,1-.29-2.24,7.51,7.51,0,0,1,.3-2.18,5.56,5.56,0,0,1,.83-1.75,4.14,4.14,0,0,1,1.28-1.16,3.35,3.35,0,0,1,3.25,0,3.85,3.85,0,0,1,1.19,1.12,5.07,5.07,0,0,1,.72,1.58,6.85,6.85,0,0,1,.24,1.8v1h-6.76a5.73,5.73,0,0,0,.13,1.1,4.07,4.07,0,0,0,.48,1.31,3.47,3.47,0,0,0,.93,1.09,2.34,2.34,0,0,0,1.51.46,2.79,2.79,0,0,0,1.55-.5,3.29,3.29,0,0,0,1.15-1.37Zm-.8-4.16a4.06,4.06,0,0,0-.22-1.32,3.94,3.94,0,0,0-.59-1.09,3,3,0,0,0-.89-.74,2.34,2.34,0,0,0-1.09-.27,2.19,2.19,0,0,0-1.43.46,3.65,3.65,0,0,0-.89,1,4.78,4.78,0,0,0-.48,1.15,3.93,3.93,0,0,0-.13.77Z" transform="translate(-100.52 -154.88)"/></g></svg>